<?xml version="1.0" encoding="UTF-8" standalone="no"?>
<svg
   xmlns:dc="http://purl.org/dc/elements/1.1/"
   xmlns:cc="http://creativecommons.org/ns#"
   xmlns:rdf="http://www.w3.org/1999/02/22-rdf-syntax-ns#"
   xmlns:svg="http://www.w3.org/2000/svg"
   xmlns="http://www.w3.org/2000/svg"
   xmlns:sodipodi="http://sodipodi.sourceforge.net/DTD/sodipodi-0.dtd"
   xmlns:inkscape="http://www.inkscape.org/namespaces/inkscape"
   version="1.1"
   id="Layer_1"
   x="0"
   y="0"
   width="34.707485"
   height="34.707485"
   enable-background="new 0 0 42 32"
   xml:space="preserve"
   sodipodi:docname="new-gears.svg"
   inkscape:version="1.0.2 (e86c870879, 2021-01-15, custom)"><sodipodi:namedview
   pagecolor="#ffffff"
   bordercolor="#666666"
   borderopacity="1"
   objecttolerance="10"
   gridtolerance="10"
   guidetolerance="10"
   inkscape:pageopacity="0"
   inkscape:pageshadow="2"
   inkscape:window-width="1817"
   inkscape:window-height="1037"
   id="namedview10"
   showgrid="false"
   inkscape:zoom="8.1206796"
   inkscape:cx="15.176138"
   inkscape:cy="23.976453"
   inkscape:window-x="0"
   inkscape:window-y="0"
   inkscape:window-maximized="0"
   inkscape:current-layer="Layer_1"
   fit-margin-top="0"
   fit-margin-left="0"
   fit-margin-right="0"
   fit-margin-bottom="0"
   inkscape:document-rotation="0"
   inkscape:lockguides="false" /><metadata
   id="metadata17"><rdf:RDF><cc:Work
       rdf:about=""><dc:format>image/svg+xml</dc:format><dc:type
         rdf:resource="http://purl.org/dc/dcmitype/StillImage" /><dc:title></dc:title></cc:Work></rdf:RDF></metadata><defs
   id="defs15">
	
	
	
	
</defs>
<rect
     style="opacity:1;fill:#ffffff;fill-opacity:1;stroke:#000000;stroke-width:0.4;stroke-miterlimit:4;stroke-dasharray:none;stroke-opacity:1"
     id="rect838"
     width="34.307484"
     height="34.307484"
     x="0.2"
     y="0.2"
     ry="2.4380951" /><g
   id="g841"
   transform="translate(-9.1354275,1.1454149)"
   style="stroke:#c87137;stroke-opacity:1;fill:none"><path
     fill="#828282"
     d="m 27.338224,5.9187619 c -0.04,0.061 -0.185,0.138 -0.259,0.138 l -1.861,-0.018 c -0.452,0 -0.905,0.321 -1.053,0.746 0,0 -0.082,0.233 -0.172,0.59 -0.09,0.357 -0.128,0.601 -0.128,0.601 -0.07,0.451 0.181,0.95 0.584,1.161 l 1.641,0.86 c 0.063,0.033 0.156,0.1720001 0.166,0.2730001 l 0.093,0.635 c 0.015,0.07 -0.033,0.23 -0.084,0.28 l -1.322,1.296 c -0.331,0.324 -0.418,0.878 -0.19,1.313 l 0.599,1 c 0.253,0.372 0.801,0.562 1.231,0.428 l 1.824,-0.558 c 0.099,0 0.198,0.038 0.254,0.083 l 0.515,0.38 c 0.06,0.04 0.139,0.187 0.138,0.259 l -0.018,1.852 c -0.004,0.456 0.316,0.913 0.746,1.063 0,0 0.233,0.082 0.59,0.172 0.357,0.09 0.601,0.128 0.601,0.128 0.026,0.004 0.13,0.012 0.156,0.012 0.408,0 0.822,-0.245 1.005,-0.596 l 0.86,-1.641 c 0.033,-0.063 0.172,-0.156 0.273,-0.166 l 0.663,-0.096 c 0.1,0 0.218,0.052 0.251,0.086 l 1.296,1.322 c 0.315,0.322 0.846,0.437 1.313,0.19 l 0.999,-0.599 c 0.382,-0.26 0.567,-0.79 0.429,-1.231 l -0.552,-1.767 c -0.021,-0.068 0.012,-0.232 0.078,-0.311 l 0.38,-0.515 c 0.04,-0.061 0.185,-0.138 0.259,-0.138 l 1.861,0.018 c 0.452,0 0.905,-0.321 1.053,-0.746 0,0 0.082,-0.233 0.172,-0.59 0.09,-0.357 0.128,-0.601 0.128,-0.601 0.07,-0.451 -0.181,-0.95 -0.584,-1.161 l -1.641,-0.8600001 c -0.063,-0.033 -0.156,-0.172 -0.166,-0.273 l -0.092,-0.633 c -0.015,-0.07 0.033,-0.23 0.084,-0.28 l 1.322,-1.296 c 0.331,-0.324 0.418,-0.878 0.19,-1.313 l -0.599,-1 c -0.253,-0.371 -0.8,-0.563 -1.231,-0.429 l -1.825,0.558 c -0.099,0 -0.198,-0.038 -0.254,-0.083 l -0.515,-0.38 c -0.06,-0.04 -0.139,-0.187 -0.138,-0.259 l 0.018,-1.852 c 0.004,-0.456 -0.316,-0.913 -0.746,-1.063 0,0 -0.233,-0.082 -0.59,-0.172 -0.357,-0.09 -0.601,-0.128 -0.601,-0.128 -0.026,-0.003 -0.13,-0.011 -0.156,-0.011 -0.408,0 -0.822,0.245 -1.005,0.596 l -0.86,1.641 c -0.033,0.063 -0.172,0.156 -0.273,0.166 l -0.663,0.095 c -0.1,0 -0.218,-0.052 -0.251,-0.086 l -1.296,-1.322 c -0.314,-0.321 -0.844,-0.437 -1.313,-0.19 l -1,0.598 c -0.382,0.26 -0.567,0.79 -0.429,1.231 l 0.552,1.767 c 0.021,0.068 -0.012,0.232 -0.078,0.311 z"
     id="path6"
     style="fill:#ffeb61;stroke:#c87137;stroke-width:1;stroke-miterlimit:4;stroke-dasharray:none;stroke-opacity:1;fill-opacity:1" /><path
     fill="#828282"
     d="m 32.782313,12.261224 c 1.654,0 3,-1.346 3,-2.9999995 0,-1.654 -1.346,-3 -3,-3 -1.654,0 -3,1.346 -3,3 0,1.6539995 1.346,2.9999995 3,2.9999995 z"
     id="path8"
     style="fill:#ffffff;stroke:#c87137;stroke-opacity:1;fill-opacity:1" /></g>
<g
     id="g847"
     transform="translate(-21.935427,14.032489)"
     style="stroke:#009a00;stroke-opacity:1"><path
     fill="#828282"
     d="m 27.338224,5.9187619 c -0.04,0.061 -0.185,0.138 -0.259,0.138 l -1.861,-0.018 c -0.452,0 -0.905,0.321 -1.053,0.746 0,0 -0.082,0.233 -0.172,0.59 -0.09,0.357 -0.128,0.601 -0.128,0.601 -0.07,0.451 0.181,0.95 0.584,1.161 l 1.641,0.86 c 0.063,0.033 0.156,0.1720001 0.166,0.2730001 l 0.093,0.635 c 0.015,0.07 -0.033,0.23 -0.084,0.28 l -1.322,1.296 c -0.331,0.324 -0.418,0.878 -0.19,1.313 l 0.599,1 c 0.253,0.372 0.801,0.562 1.231,0.428 l 1.824,-0.558 c 0.099,0 0.198,0.038 0.254,0.083 l 0.515,0.38 c 0.06,0.04 0.139,0.187 0.138,0.259 l -0.018,1.852 c -0.004,0.456 0.316,0.913 0.746,1.063 0,0 0.233,0.082 0.59,0.172 0.357,0.09 0.601,0.128 0.601,0.128 0.026,0.004 0.13,0.012 0.156,0.012 0.408,0 0.822,-0.245 1.005,-0.596 l 0.86,-1.641 c 0.033,-0.063 0.172,-0.156 0.273,-0.166 l 0.663,-0.096 c 0.1,0 0.218,0.052 0.251,0.086 l 1.296,1.322 c 0.315,0.322 0.846,0.437 1.313,0.19 l 0.999,-0.599 c 0.382,-0.26 0.567,-0.79 0.429,-1.231 l -0.552,-1.767 c -0.021,-0.068 0.012,-0.232 0.078,-0.311 l 0.38,-0.515 c 0.04,-0.061 0.185,-0.138 0.259,-0.138 l 1.861,0.018 c 0.452,0 0.905,-0.321 1.053,-0.746 0,0 0.082,-0.233 0.172,-0.59 0.09,-0.357 0.128,-0.601 0.128,-0.601 0.07,-0.451 -0.181,-0.95 -0.584,-1.161 l -1.641,-0.8600001 c -0.063,-0.033 -0.156,-0.172 -0.166,-0.273 l -0.092,-0.633 c -0.015,-0.07 0.033,-0.23 0.084,-0.28 l 1.322,-1.296 c 0.331,-0.324 0.418,-0.878 0.19,-1.313 l -0.599,-1 c -0.253,-0.371 -0.8,-0.563 -1.231,-0.429 l -1.825,0.558 c -0.099,0 -0.198,-0.038 -0.254,-0.083 l -0.515,-0.38 c -0.06,-0.04 -0.139,-0.187 -0.138,-0.259 l 0.018,-1.852 c 0.004,-0.456 -0.316,-0.913 -0.746,-1.063 0,0 -0.233,-0.082 -0.59,-0.172 -0.357,-0.09 -0.601,-0.128 -0.601,-0.128 -0.026,-0.003 -0.13,-0.011 -0.156,-0.011 -0.408,0 -0.822,0.245 -1.005,0.596 l -0.86,1.641 c -0.033,0.063 -0.172,0.156 -0.273,0.166 l -0.663,0.095 c -0.1,0 -0.218,-0.052 -0.251,-0.086 l -1.296,-1.322 c -0.314,-0.321 -0.844,-0.437 -1.313,-0.19 l -1,0.598 c -0.382,0.26 -0.567,0.79 -0.429,1.231 l 0.552,1.767 c 0.021,0.068 -0.012,0.232 -0.078,0.311 z"
     id="path843"
     style="fill:#c4eb4e;stroke:#009a00;stroke-width:1;stroke-miterlimit:4;stroke-dasharray:none;stroke-opacity:1" /><path
     fill="#828282"
     d="m 32.782313,12.261224 c 1.654,0 3,-1.346 3,-2.9999995 0,-1.654 -1.346,-3 -3,-3 -1.654,0 -3,1.346 -3,3 0,1.6539995 1.346,2.9999995 3,2.9999995 z"
     id="path845"
     style="fill:#ffffff;stroke:#009a00;stroke-opacity:1;fill-opacity:1" /></g><rect
   style="fill:#f2f2f2;fill-opacity:1;stroke:#d9bc65;stroke-width:0.4;stroke-opacity:0.997059"
   id="rect836"
   width="0.34829932"
   height="0.087074831"
   x="40.838093"
   y="42.753742"
   ry="0.043537416"
   rx="0.043537416" /></svg>
