<?xml version="1.0" encoding="UTF-8" standalone="no"?>
<svg
   xmlns="http://www.w3.org/2000/svg"
   viewBox="0 0 232 95"
   version="1.1"
   id="svg39">
  <defs
     id="defs4">
    <style
       id="style2">.cls-1{fill:#231f20;}.cls-2{fill:#fdbb40;}.cls-3{fill:#febd3e;}</style>
  </defs>
  <title
     id="title6">FIDO_Alliance_Logo_Tagline_(tm)</title>
    <path
       class="cls-3"
       d="M114.56,329.28A10.44,10.44,0,1,0,125,339.73,10.44,10.44,0,0,0,114.56,329.28Z"
       transform="translate(-39.07 -325.25)"/>
    <polygon
       class="cls-3"
       points="47.53 33.27 47.53 45.53 47.53 46.91 66.27 46.91 66.27 93.01 73.04 93.01 73.04 66.81 77.94 66.81 77.94 93.01 84.77 93.01 84.77 33.27 73.29 33.27 47.53 33.27"/>
    <path
       class="cls-3"
       d="M174.9,363.67h-.21c-2.76-4-8.29-6.75-15.76-6.75-14.32,0-26.9,11.77-26.8,31.92,0,18.62,11.36,30.79,25.58,30.79,7.67,0,15-3.47,18.61-10l1.13,8.59H193.5V330.61H174.9Zm0,27.93a31,31,0,0,1-.31,4.3,11.09,11.09,0,0,1-11,8.9c-7.67,0-12.68-6.34-12.68-16.57,0-9.41,4.29-17,12.78-17,5.83,0,9.83,4.2,10.95,9.11a19.32,19.32,0,0,1,.21,3.38Z"
       transform="translate(-39.07 -325.25)"/>
    <path
       class="cls-1"
       d="M85.26,342.52l4.57-15.39a29.58,29.58,0,0,0-3.88-1,36.16,36.16,0,0,0-18.14.57h0a19.93,19.93,0,0,0-3.55,1.42h0a25,25,0,0,0-6.37,4.57c-4.81,4.71-7.25,11.11-7.25,19v6.81H39.07v13.64H50.6v46.1H69.08v-46.1H80.61V358.52H69.08v-7.21a9.85,9.85,0,0,1,2.2-6.84,7,7,0,0,1,.62-.6h0S75.88,339.93,85.26,342.52Z"
       transform="translate(-39.07 -325.25)"/>
    <path
       class="cls-1"
       d="M234.38,356.93c-19.33,0-32,12.37-32,31.81s13.4,30.89,30.9,30.89c16,0,31.51-10,31.51-32C264.77,369.61,252.6,356.93,234.38,356.93Zm-.61,49.3c-8,0-12.27-7.67-12.27-18,0-8.8,3.47-17.9,12.27-17.9,8.38,0,11.87,9,11.87,17.8C245.64,399.07,241,406.23,233.77,406.23Z"
       transform="translate(-39.07 -325.25)"/>
    <polygon
       class="cls-1"
       points="216.35 25.65 218.58 25.65 218.58 31.32 219.93 31.32 219.93 25.65 222.15 25.65 222.15 24.52 216.35 24.52 216.35 25.65"/>
    <polygon
       class="cls-1"
       points="228.91 24.52 227.16 29.38 225.42 24.52 223.47 24.52 223.47 31.32 224.72 31.32 224.72 25.83 226.62 31.32 227.71 31.32 229.59 25.83 229.59 31.32 230.84 31.32 230.84 24.52 228.91 24.52"/>
</svg>
