<svg width="110" height="72" xmlns="http://www.w3.org/2000/svg" xmlns:svg="http://www.w3.org/2000/svg">
    <title>FIDO Web Pay - Issuer</title>
    <!-- Anders Rundgren 2021-->
    <defs>
        <linearGradient id="bankPillar" x1="0" x2="1">
            <stop offset="0" stop-color="#606060"/>
            <stop offset="0.4" stop-color="#ffffff"/>
            <stop offset="0.6" stop-color="#ffffff"/>
            <stop offset="1" stop-color="#606060"/>
        </linearGradient>
        <filter height="200%" id="bankShaddow" width="200%" x="-50%" y="-50%">
            <feGaussianBlur stdDeviation="2"/>
        </filter>
    </defs>
    <g class="layer">
        <title>Layer 1</title>
         <rect fill="#ffffff" height="31.5" id="svg_2" width="76" x="17" y="29"/>
        <path d="m19.5,17.5l21.67,0l0,11l-10.67,0l0,31.5l-11,0" fill="#a0a0a0" filter="url(#bankShaddow)"/>
        <rect fill="url(#bankPillar)" height="31.5" id="svg_4" width="11" x="17" y="27"/>
        <path d="m41,17.5l21.67,0l0,11l-10.67,0l0,31.5l-11,0" fill="#a0a0a0" filter="url(#bankShaddow)" id="svg_5"/>
        <rect fill="url(#bankPillar)" height="31.5" id="svg_6" width="11" x="38.66" y="27"/>
        <path d="m62.5,17.5l21.67,0l0,11l-10.67,0l0,31.5l-11,0" fill="#a0a0a0" filter="url(#bankShaddow)" id="svg_7"/>
        <rect fill="url(#bankPillar)" height="31.5" id="svg_8" width="11" x="60.33" y="27"/>
        <path d='m 84,17.5 h 16.77181 L 102.05176,28.779896 95,28.5 V 60 h -11' fill="#a0a0a0" filter="url(#bankShaddow)"/>
        <rect fill="url(#bankPillar)" height="31.5" id="svg_9" width="11" x="82" y="27"/>
        <path d="m10,16l45,-15l45,15" fill="#e0e0e0" id="svg_10" stroke="#404040" stroke-linecap="round"/>
        <rect fill="#f2f2f2" height="10" id="svg_11" stroke="#404040" width="90" x="10" y="16.5"/>
        <rect fill="#f2f2f2" height="6" id="svg_12" stroke="#404040" width="100" x="5" y="65"/>
        <rect fill="#f2f2f2" height="6" id="svg_13" stroke="#404040" width="90" x="10" y="59"/>
    </g>
</svg>